<svg width="512" height="512" viewBox="0 0 512 512" fill="none" xmlns="http://www.w3.org/2000/svg">
<path d="M19.3003 451.665C7.5065 440.112 1.23977 427.5 1 414.338V312.509H511V414.338C510.744 427.5 504.469 440.112 492.672 451.665C480.866 463.227 463.567 473.685 441.401 482.488C397.071 500.092 333.466 511 256 511C178.534 511 114.912 500.092 70.5746 482.488C48.4044 473.685 31.1038 463.227 19.3003 451.665Z" fill="#EB503B" stroke="white" stroke-width="2"/>
<path d="M511 311.106C511 339.094 486.452 364.776 441.989 383.51C397.61 402.21 333.753 413.808 256 413.808C178.247 413.808 114.39 402.21 70.0106 383.51C25.5481 364.776 1 339.094 1 311.106C1 283.118 25.5481 257.436 70.0106 238.702C114.39 220.002 178.247 208.404 256 208.404C333.753 208.404 397.61 219.988 441.99 238.68C486.452 257.407 511 283.089 511 311.106Z" fill="#FFFBF8" stroke="white" stroke-width="2"/>
<path d="M19.3162 337.357C7.51228 325.26 1.23988 312.282 1 299.114V208.807H511V299.113C510.744 312.282 504.463 325.259 492.657 337.357C480.843 349.46 463.54 360.635 441.375 370.154C397.05 389.192 333.452 401.537 256 401.537C178.548 401.537 114.934 389.192 70.6001 370.154C48.432 360.635 31.1262 349.46 19.3162 337.357Z" fill="#EB503B" stroke="white" stroke-width="2"/>
<path d="M511 207.404C511 235.392 486.452 261.074 441.989 279.808C397.61 298.508 333.753 310.106 256 310.106C178.247 310.106 114.39 298.508 70.0106 279.808C25.5481 261.074 1 235.392 1 207.404C1 179.416 25.5481 153.734 70.0106 135C114.39 116.3 178.247 104.702 256 104.702C333.753 104.702 397.61 116.286 441.99 134.978C486.452 153.705 511 179.387 511 207.404Z" fill="#FFFBF8" stroke="white" stroke-width="2"/>
<path d="M19.3162 233.655C7.51228 221.557 1.23988 208.58 1 195.412V105.105H511V195.411C510.744 208.58 504.463 221.557 492.657 233.655C480.843 245.758 463.54 256.933 441.375 266.452C397.05 285.49 333.452 297.835 256 297.835C178.548 297.835 114.934 285.49 70.6001 266.452C48.432 256.933 31.1262 245.758 19.3162 233.655Z" fill="#EB503B" stroke="white" stroke-width="2"/>
<path d="M511 103.702C511 131.69 486.452 157.372 441.989 176.106C397.61 194.806 333.753 206.404 256 206.404C178.247 206.404 114.39 194.806 70.0106 176.106C25.5481 157.372 1 131.69 1 103.702C1 75.7139 25.5481 50.0318 70.0106 31.2976C114.39 12.5983 178.247 1 256 1C333.753 1 397.61 12.5839 441.99 31.276C486.452 50.0029 511 75.685 511 103.702Z" fill="#FE614B" stroke="white" stroke-width="2"/>
<g filter="url(#filter0_d_205_18)">
<path d="M246.271 45.6036L246.418 45.75H246.625H335.5C346.086 45.75 354.75 54.4136 354.75 65V84.25H158.25V45.25C158.25 34.6636 166.914 26 177.5 26H226.668L246.271 45.6036Z" fill="#F3B3AA" stroke="#FFFBF8"/>
<path d="M177.5 45.75H335.5C346.086 45.75 354.75 54.4136 354.75 65V163.75C354.75 174.336 346.086 183 335.5 183H177.5C166.914 183 158.25 174.336 158.25 163.75V65C158.25 54.4136 166.914 45.75 177.5 45.75Z" fill="#FFFBF8" stroke="#FFFBF8"/>
</g>
<defs>
<filter id="filter0_d_205_18" x="153.75" y="25.5" width="205.5" height="166" filterUnits="userSpaceOnUse" color-interpolation-filters="sRGB">
<feFlood flood-opacity="0" result="BackgroundImageFix"/>
<feColorMatrix in="SourceAlpha" type="matrix" values="0 0 0 0 0 0 0 0 0 0 0 0 0 0 0 0 0 0 127 0" result="hardAlpha"/>
<feOffset dy="4"/>
<feGaussianBlur stdDeviation="2"/>
<feComposite in2="hardAlpha" operator="out"/>
<feColorMatrix type="matrix" values="0 0 0 0 0 0 0 0 0 0 0 0 0 0 0 0 0 0 0.25 0"/>
<feBlend mode="normal" in2="BackgroundImageFix" result="effect1_dropShadow_205_18"/>
<feBlend mode="normal" in="SourceGraphic" in2="effect1_dropShadow_205_18" result="shape"/>
</filter>
</defs>
</svg>
